<svg width="77" height="76" viewBox="0 0 77 76" fill="none" xmlns="http://www.w3.org/2000/svg">
<g clip-path="url(#clip0)">
<g opacity="0.5" filter="url(#filter0_d)">
<path d="M5.9054 18.6047C4.80622 14.5023 8.9989 10.9843 12.8481 12.7791L54.5178 32.2094C57.8326 33.7551 58.4205 38.2202 55.6187 40.5712L25.8483 65.5516C23.0465 67.9026 18.7513 66.5483 17.8047 63.0154L5.9054 18.6047Z" fill="#E74C3C"/>
</g>
<path opacity="0.5" d="M61.2493 12.9027C65.0985 11.1078 69.2912 14.6259 68.192 18.7283L56.2927 63.139C55.3461 66.6718 51.0509 68.0261 48.2491 65.6751L18.4787 40.6948C15.6769 38.3438 16.2648 33.8787 19.5796 32.333L61.2493 12.9027Z" fill="#2980B9"/>
</g>
<defs>
<filter id="filter0_d" x="-15.1989" y="-2.22751" width="78.6524" height="78.9969" filterUnits="userSpaceOnUse" color-interpolation-filters="sRGB">
<feFlood flood-opacity="0" result="BackgroundImageFix"/>
<feColorMatrix in="SourceAlpha" type="matrix" values="0 0 0 0 0 0 0 0 0 0 0 0 0 0 0 0 0 0 127 0"/>
<feOffset dy="4"/>
<feGaussianBlur stdDeviation="2"/>
<feColorMatrix type="matrix" values="0 0 0 0 0 0 0 0 0 0 0 0 0 0 0 0 0 0 0.25 0"/>
<feBlend mode="normal" in2="BackgroundImageFix" result="effect1_dropShadow"/>
<feBlend mode="normal" in="SourceGraphic" in2="effect1_dropShadow" result="shape"/>
</filter>
<clipPath id="clip0">
<rect width="77" height="76" fill="white"/>
</clipPath>
</defs>
</svg>
