<svg width="278" height="76" viewBox="0 0 278 76" fill="none" xmlns="http://www.w3.org/2000/svg">
<g clip-path="url(#clip0)">
<g opacity="0.5" filter="url(#filter0_d)">
<path d="M5.9054 18.6047C4.80622 14.5023 8.9989 10.9843 12.8481 12.7791L54.5178 32.2094C57.8326 33.7551 58.4205 38.2202 55.6187 40.5712L25.8483 65.5516C23.0465 67.9026 18.7513 66.5483 17.8047 63.0154L5.9054 18.6047Z" fill="#E74C3C"/>
</g>
<path opacity="0.5" d="M61.2493 12.9027C65.0985 11.1078 69.2912 14.6259 68.192 18.7283L56.2927 63.139C55.3461 66.6718 51.0509 68.0261 48.2491 65.6751L18.4787 40.6948C15.6769 38.3438 16.2648 33.8787 19.5796 32.333L61.2493 12.9027Z" fill="#2980B9"/>
<path d="M92.8047 52.0195H84.0723L82.4121 57H77.1162L86.1143 32.8281H90.7295L99.7773 57H94.4814L92.8047 52.0195ZM85.417 47.9854H91.46L88.4219 38.9375L85.417 47.9854ZM105.422 39.0371L105.571 41.0459C106.844 39.4854 108.565 38.7051 110.734 38.7051C113.048 38.7051 114.636 39.6182 115.499 41.4443C116.761 39.6182 118.559 38.7051 120.895 38.7051C122.842 38.7051 124.292 39.2751 125.244 40.415C126.196 41.5439 126.672 43.2484 126.672 45.5283V57H121.857V45.5449C121.857 44.5267 121.658 43.7852 121.26 43.3203C120.861 42.8444 120.159 42.6064 119.151 42.6064C117.713 42.6064 116.716 43.2926 116.163 44.665L116.18 57H111.382V45.5615C111.382 44.5212 111.177 43.7686 110.768 43.3037C110.358 42.8389 109.661 42.6064 108.676 42.6064C107.314 42.6064 106.329 43.1709 105.721 44.2998V57H100.923V39.0371H105.422ZM135.438 57H130.623V39.0371H135.438V57ZM130.341 34.3887C130.341 33.6693 130.579 33.0771 131.055 32.6123C131.542 32.1475 132.2 31.915 133.03 31.915C133.849 31.915 134.502 32.1475 134.989 32.6123C135.476 33.0771 135.72 33.6693 135.72 34.3887C135.72 35.1191 135.471 35.7168 134.973 36.1816C134.486 36.6465 133.838 36.8789 133.03 36.8789C132.222 36.8789 131.569 36.6465 131.071 36.1816C130.584 35.7168 130.341 35.1191 130.341 34.3887ZM149.499 43.5361C148.846 43.4476 148.271 43.4033 147.772 43.4033C145.957 43.4033 144.768 44.0176 144.203 45.2461V57H139.405V39.0371H143.938L144.07 41.1787C145.033 39.5296 146.367 38.7051 148.071 38.7051C148.603 38.7051 149.101 38.777 149.565 38.9209L149.499 43.5361ZM156.505 40.9961C157.778 39.4688 159.377 38.7051 161.303 38.7051C165.199 38.7051 167.174 40.9684 167.229 45.4951V57H162.432V45.6279C162.432 44.5986 162.21 43.8405 161.768 43.3535C161.325 42.8555 160.589 42.6064 159.56 42.6064C158.154 42.6064 157.136 43.1488 156.505 44.2334V57H151.707V31.5H156.505V40.9961ZM170.102 47.8525C170.102 46.0706 170.445 44.4824 171.131 43.0879C171.817 41.6934 172.802 40.6143 174.086 39.8506C175.381 39.0869 176.881 38.7051 178.585 38.7051C181.009 38.7051 182.984 39.4466 184.512 40.9297C186.05 42.4128 186.908 44.4271 187.085 46.9727L187.118 48.2012C187.118 50.957 186.349 53.1706 184.811 54.8418C183.272 56.502 181.208 57.332 178.618 57.332C176.028 57.332 173.959 56.502 172.409 54.8418C170.871 53.1816 170.102 50.9238 170.102 48.0684V47.8525ZM174.899 48.2012C174.899 49.9056 175.22 51.2116 175.862 52.1191C176.504 53.0156 177.423 53.4639 178.618 53.4639C179.78 53.4639 180.688 53.0212 181.341 52.1357C181.994 51.2393 182.32 49.8115 182.32 47.8525C182.32 46.1813 181.994 44.8864 181.341 43.9678C180.688 43.0492 179.769 42.5898 178.585 42.5898C177.412 42.5898 176.504 43.0492 175.862 43.9678C175.22 44.8753 174.899 46.2865 174.899 48.2012ZM199.802 52.0361C199.802 51.4495 199.508 50.9902 198.922 50.6582C198.346 50.3151 197.417 50.0107 196.133 49.7451C191.861 48.8486 189.725 47.0335 189.725 44.2998C189.725 42.7061 190.383 41.3779 191.7 40.3154C193.028 39.2419 194.76 38.7051 196.896 38.7051C199.176 38.7051 200.997 39.2419 202.358 40.3154C203.731 41.389 204.417 42.7835 204.417 44.499H199.619C199.619 43.8128 199.398 43.2484 198.955 42.8057C198.512 42.3519 197.821 42.125 196.88 42.125C196.072 42.125 195.447 42.3076 195.004 42.6729C194.561 43.0381 194.34 43.5029 194.34 44.0674C194.34 44.5986 194.589 45.0303 195.087 45.3623C195.596 45.6833 196.448 45.9655 197.644 46.209C198.839 46.4414 199.846 46.707 200.665 47.0059C203.2 47.9355 204.467 49.5459 204.467 51.8369C204.467 53.4749 203.764 54.8031 202.358 55.8213C200.953 56.8285 199.138 57.332 196.913 57.332C195.408 57.332 194.069 57.0664 192.896 56.5352C191.733 55.9928 190.82 55.2568 190.156 54.3271C189.492 53.3864 189.16 52.3737 189.16 51.2891H193.709C193.753 52.1413 194.069 52.7943 194.655 53.248C195.242 53.7018 196.028 53.9287 197.013 53.9287C197.931 53.9287 198.623 53.7572 199.088 53.4141C199.564 53.0599 199.802 52.6006 199.802 52.0361ZM217.3 52.0361C217.3 51.4495 217.007 50.9902 216.42 50.6582C215.844 50.3151 214.915 50.0107 213.631 49.7451C209.359 48.8486 207.223 47.0335 207.223 44.2998C207.223 42.7061 207.881 41.3779 209.198 40.3154C210.526 39.2419 212.258 38.7051 214.395 38.7051C216.674 38.7051 218.495 39.2419 219.856 40.3154C221.229 41.389 221.915 42.7835 221.915 44.499H217.117C217.117 43.8128 216.896 43.2484 216.453 42.8057C216.01 42.3519 215.319 42.125 214.378 42.125C213.57 42.125 212.945 42.3076 212.502 42.6729C212.059 43.0381 211.838 43.5029 211.838 44.0674C211.838 44.5986 212.087 45.0303 212.585 45.3623C213.094 45.6833 213.946 45.9655 215.142 46.209C216.337 46.4414 217.344 46.707 218.163 47.0059C220.698 47.9355 221.965 49.5459 221.965 51.8369C221.965 53.4749 221.262 54.8031 219.856 55.8213C218.451 56.8285 216.636 57.332 214.411 57.332C212.906 57.332 211.567 57.0664 210.394 56.5352C209.231 55.9928 208.318 55.2568 207.654 54.3271C206.99 53.3864 206.658 52.3737 206.658 51.2891H211.207C211.251 52.1413 211.567 52.7943 212.153 53.248C212.74 53.7018 213.526 53.9287 214.511 53.9287C215.429 53.9287 216.121 53.7572 216.586 53.4141C217.062 53.0599 217.3 52.6006 217.3 52.0361ZM233.337 57.332C230.703 57.332 228.556 56.5241 226.896 54.9082C225.246 53.2923 224.422 51.1396 224.422 48.4502V47.9854C224.422 46.1813 224.771 44.571 225.468 43.1543C226.165 41.7266 227.15 40.6309 228.423 39.8672C229.707 39.0924 231.168 38.7051 232.806 38.7051C235.263 38.7051 237.194 39.4798 238.6 41.0293C240.016 42.5788 240.725 44.7757 240.725 47.6201V49.5791H229.286C229.441 50.7523 229.906 51.693 230.681 52.4014C231.466 53.1097 232.457 53.4639 233.652 53.4639C235.501 53.4639 236.945 52.7943 237.985 51.4551L240.343 54.0947C239.623 55.113 238.649 55.9098 237.421 56.4854C236.192 57.0498 234.831 57.332 233.337 57.332ZM232.789 42.5898C231.837 42.5898 231.062 42.9108 230.465 43.5527C229.878 44.1947 229.502 45.1133 229.336 46.3086H236.01V45.9268C235.988 44.8643 235.7 44.0452 235.146 43.4697C234.593 42.8831 233.807 42.5898 232.789 42.5898ZM248.527 57H243.713V39.0371H248.527V57ZM243.431 34.3887C243.431 33.6693 243.669 33.0771 244.145 32.6123C244.632 32.1475 245.29 31.915 246.12 31.915C246.939 31.915 247.592 32.1475 248.079 32.6123C248.566 33.0771 248.81 33.6693 248.81 34.3887C248.81 35.1191 248.561 35.7168 248.062 36.1816C247.576 36.6465 246.928 36.8789 246.12 36.8789C245.312 36.8789 244.659 36.6465 244.161 36.1816C243.674 35.7168 243.431 35.1191 243.431 34.3887ZM256.911 39.0371L257.061 41.1123C258.344 39.5075 260.065 38.7051 262.224 38.7051C264.127 38.7051 265.544 39.264 266.474 40.3818C267.403 41.4997 267.879 43.1709 267.901 45.3955V57H263.104V45.5117C263.104 44.4935 262.882 43.7575 262.439 43.3037C261.997 42.8389 261.261 42.6064 260.231 42.6064C258.881 42.6064 257.868 43.182 257.193 44.333V57H252.396V39.0371H256.911Z" fill="white"/>
</g>
<defs>
<filter id="filter0_d" x="-15.1989" y="-2.22751" width="78.6524" height="78.9969" filterUnits="userSpaceOnUse" color-interpolation-filters="sRGB">
<feFlood flood-opacity="0" result="BackgroundImageFix"/>
<feColorMatrix in="SourceAlpha" type="matrix" values="0 0 0 0 0 0 0 0 0 0 0 0 0 0 0 0 0 0 127 0"/>
<feOffset dy="4"/>
<feGaussianBlur stdDeviation="2"/>
<feColorMatrix type="matrix" values="0 0 0 0 0 0 0 0 0 0 0 0 0 0 0 0 0 0 0.25 0"/>
<feBlend mode="normal" in2="BackgroundImageFix" result="effect1_dropShadow"/>
<feBlend mode="normal" in="SourceGraphic" in2="effect1_dropShadow" result="shape"/>
</filter>
<clipPath id="clip0">
<rect width="278" height="76" fill="white"/>
</clipPath>
</defs>
</svg>
